<?xml version="1.0" encoding="utf-8"?>
<!-- Svg Vector Icons : http://www.onlinewebfonts.com/icon -->
<!DOCTYPE svg PUBLIC "-//W3C//DTD SVG 1.1//EN" "http://www.w3.org/Graphics/SVG/1.1/DTD/svg11.dtd">
<svg version="1.1" xmlns="http://www.w3.org/2000/svg" xmlns:xlink="http://www.w3.org/1999/xlink" x="0px" y="0px" viewBox="0 0 1000 1000" enable-background="new 0 0 1000 1000" xml:space="preserve">
<metadata> Svg Vector Icons : http://www.onlinewebfonts.com/icon </metadata>
<g><path d="M706.4,751.9c56.8-54.8,85.2-140.5,85.2-256.9c0-110.7-28.9-193.4-86.6-248.2c-53.9-52.9-122.2-79.4-204.9-79.4c-83.7,0-152.5,26.5-206.4,79.4c-56.8,54.8-85.2,139-85.2,252.6c0,112.6,28.4,197.2,85.2,254c55.8,52.9,124.6,79.4,206.4,79.4C581.8,832.7,650.6,805.7,706.4,751.9z M894,769.2c-35.6,69.3-89.5,123.6-161.6,163.1C660.2,970.8,582.7,990,500,990c-133.7,0-242.5-42.8-326.2-128.5C91.1,776.9,49.7,656.1,49.7,499.3c0-173.2,49.6-301.2,148.7-383.9C280.1,45.1,380.7,10,500,10c131.8,0,240.1,42.3,324.7,127c83.7,86.6,125.6,203,125.6,349.3C950.3,605.6,931.5,699.9,894,769.2L894,769.2z"/></g>
</svg>